FFmpeg version SVN-r25716, Copyright (c) 2000-2010 the FFmpeg developers  built on Nov 10 2010 12:23:18 with gcc 4.1.2 20080704 (Red Hat 4.1.2-48)  configuration: --enable-libmp3lame --enable-shared --disable-mmx --arch=x86_64  libavutil     50.33. 0 / 50.33. 0  libavcore      0.12. 1 /  0.12. 1  libavcodec    52.94. 4 / 52.94. 4  libavformat   52.84. 0 / 52.84. 0  libavdevice   52. 2. 2 / 52. 2. 2  libavfilter    1.59. 0 /  1.59. 0  libswscale     0.12. 0 /  0.12. 0Input #0, avi, from '/RAID10/data/converted_video_files/47593.avi':  Duration: 00:00:09.70, start: 0.000000, bitrate: 188617 kb/s    Stream #0.0: Video: msvideo1, rgb555le, 1024x1024, 20 tbr, 20 tbn, 20 tbc[buffer @ 0x7221440] w:1024 h:1024 pixfmt:rgb555le[ffsink @ 0x723ed50] auto-inserting filter 'auto-inserted scaler 0' between the filter 'src' and the filter 'out'[scale @ 0x723f040] w:1024 h:1024 fmt:rgb555le -> w:1024 h:1024 fmt:yuv420p flags:0x4Output #0, flv, to '/RAID10/data/converted_video_files/47593.flv':  Metadata:    encoder         : Lavf52.84.0    Stream #0.0: Video: flv, yuv420p, 1024x1024, q=2-31, 600 kb/s, 1k tbn, 24 tbcStream mapping:  Stream #0.0 -> #0.0Press [q] to stop encodingframe=    4 fps=  0 q=6.3 size=     867kB time=0.21 bitrate=33968.2kbits/s    frame=    8 fps=  7 q=17.2 size=     995kB time=0.37 bitrate=21796.7kbits/s    frame=   17 fps= 10 q=31.0 size=    1055kB time=0.83 bitrate=10376.7kbits/s    frame=   26 fps= 12 q=31.0 size=    1113kB time=1.29 bitrate=7062.3kbits/s    frame=   34 fps= 13 q=31.0 size=    1133kB time=1.71 bitrate=5431.1kbits/s    frame=   42 fps= 13 q=31.0 size=    1174kB time=2.08 bitrate=4616.1kbits/s    frame=   51 fps= 14 q=31.0 size=    1218kB time=2.54 bitrate=3924.0kbits/s    frame=   61 fps= 14 q=24.8 size=    1257kB time=3.04 bitrate=3386.1kbits/s    frame=   68 fps= 14 q=31.0 size=    1293kB time=3.37 bitrate=3138.7kbits/s    frame=   73 fps= 14 q=24.8 size=    1327kB time=3.62 bitrate=2999.3kbits/s    frame=   81 fps= 14 q=31.0 size=    1339kB time=4.04 bitrate=2713.4kbits/s    frame=   91 fps= 14 q=31.0 size=    1399kB time=4.54 bitrate=2522.5kbits/s    frame=   99 fps= 14 q=31.0 size=    1437kB time=4.96 bitrate=2374.6kbits/s    frame=  110 fps= 15 q=31.0 size=    1479kB time=5.50 bitrate=2202.6kbits/s    frame=  119 fps= 15 q=31.0 size=    1495kB time=5.96 bitrate=2055.3kbits/s    frame=  128 fps= 15 q=31.0 size=    1535kB time=6.37 bitrate=1973.3kbits/s    frame=  137 fps= 15 q=31.0 size=    1577kB time=6.83 bitrate=1891.0kbits/s    frame=  147 fps= 15 q=31.0 size=    1623kB time=7.33 bitrate=1812.8kbits/s    frame=  156 fps= 16 q=31.0 size=    1649kB time=7.79 bitrate=1733.6kbits/s    frame=  167 fps= 16 q=31.0 size=    1698kB time=8.33 bitrate=1669.1kbits/s    frame=  175 fps= 16 q=31.0 size=    1738kB time=8.75 bitrate=1627.3kbits/s    frame=  182 fps= 16 q=31.0 size=    1778kB time=9.08 bitrate=1603.9kbits/s    frame=  190 fps= 16 q=31.0 size=    1789kB time=9.50 bitrate=1542.6kbits/s    frame=  194 fps= 16 q=31.0 Lsize=    1823kB time=9.71 bitrate=1538.1kbits/s    video:1819kB audio:0kB global headers:0kB muxing overhead 0.177869%